<svg xmlns="http://www.w3.org/2000/svg" viewBox="0 0 100 100" fill="none" stroke="currentColor" stroke-width="3" stroke-linecap="round" stroke-linejoin="round">
  <!-- Монеты -->
  <ellipse cx="50" cy="30" rx="25" ry="8" fill="currentColor" opacity="0.2"/>
  <ellipse cx="50" cy="30" rx="25" ry="8"/>
  <path d="M25,30 L25,55 C25,59 37,65 50,65 C63,65 75,59 75,55 L75,30"/>
  <ellipse cx="50" cy="30" rx="25" ry="8"/>
  <!-- Знак рубля в центре -->
  <path d="M35,45 L65,45 M42,35 L58,35 L50,35 L50,55" stroke="white" stroke-width="4" fill="none"/>
  <!-- Вторая монета сбоку -->
  <ellipse cx="75" cy="60" rx="18" ry="6" fill="currentColor" opacity="0.15"/>
  <ellipse cx="75" cy="60" rx="18" ry="6"/>
  <path d="M57,60 L57,80 C57,83 66,88 75,88 C84,88 93,83 93,80 L93,60"/>
  <ellipse cx="75" cy="60" rx="18" ry="6"/>
</svg>
